<?xml version="1.0" standalone="no"?>
<!DOCTYPE svg PUBLIC "-//W3C//DTD SVG 20010904//EN"
 "http://www.w3.org/TR/2001/REC-SVG-20010904/DTD/svg10.dtd">
<svg version="1.0" xmlns="http://www.w3.org/2000/svg"
 width="16.000000pt" height="16.000000pt" viewBox="0 0 16.000000 16.000000"
 preserveAspectRatio="xMidYMid meet">
<metadata>
Created by potrace 1.11, written by Peter Selinger 2001-2013
</metadata>
<g transform="translate(0.000000,16.000000) scale(0.003125,-0.003125)"
fill="#000000" stroke="none">
<path d="M3056 4147 l-60 -32 -220 0 c-249 0 -265 -4 -328 -71 -64 -68 -287
-377 -318 -440 -16 -33 -36 -85 -43 -115 l-14 -54 -21 40 c-32 63 -56 79 -126
85 l-61 5 -25 49 c-44 87 -54 90 -266 94 -149 3 -184 1 -184 -10 0 -7 4 -51 9
-98 6 -47 13 -353 16 -680 4 -327 7 -595 8 -596 1 -1 41 -4 88 -8 l85 -6 47
63 c66 91 171 192 225 219 27 13 72 24 107 26 59 4 61 5 90 50 75 117 233 251
369 312 124 56 216 75 371 74 160 -1 248 -20 374 -79 197 -94 363 -267 447
-468 26 -60 62 -115 77 -116 4 -1 7 19 7 43 0 25 11 163 25 308 27 293 52 744
41 755 -10 10 -58 -29 -85 -70 -45 -68 -92 -42 -117 62 -7 34 -23 81 -35 104
-28 55 -138 203 -217 292 -68 76 -122 172 -122 215 0 16 -8 37 -17 48 -30 35
-62 34 -127 -1z"/>
<path d="M3994 3844 c3 -9 0 -57 -8 -108 -8 -50 -17 -181 -21 -291 -7 -242
-19 -431 -46 -710 -10 -115 -23 -275 -28 -355 -9 -139 -10 -146 -36 -167 -21
-19 -38 -23 -91 -23 -81 0 -143 29 -214 100 -69 69 -88 68 -179 -14 -40 -36
-87 -69 -104 -75 -18 -5 -140 -12 -272 -15 -132 -3 -350 -9 -485 -12 -322 -8
-347 -1 -389 113 -24 65 -77 142 -104 152 -47 18 -134 -53 -249 -203 -72 -95
-102 -111 -197 -107 -128 6 -164 3 -191 -17 -41 -31 -58 -71 -76 -180 -11 -65
-22 -102 -29 -102 -9 0 -11 17 -8 63 3 34 -5 157 -17 272 -16 149 -21 247 -18
335 3 69 1 340 -4 603 -8 477 -17 589 -50 651 -9 17 -13 10 -28 -46 -12 -48
-19 -131 -24 -314 -8 -269 -18 -425 -41 -629 -8 -71 -20 -205 -25 -297 -13
-205 -33 -328 -57 -345 -21 -16 -114 -17 -167 -2 -21 6 -59 30 -85 53 -107 98
-127 100 -220 12 -93 -87 -108 -91 -303 -76 -87 7 -174 9 -193 6 -32 -6 -35
-10 -35 -43 l0 -36 227 7 c257 8 279 13 348 85 23 24 48 41 61 41 13 0 43 -18
69 -40 55 -47 86 -56 232 -65 l113 -6 20 33 c36 58 41 98 50 348 8 235 32 455
51 475 5 5 9 -93 9 -250 1 -266 11 -580 30 -925 6 -107 12 -292 13 -410 l2
-215 31 -3 c23 -2 34 2 39 15 5 10 11 158 16 328 7 308 18 415 55 541 24 83
36 89 173 86 64 -2 130 0 147 3 23 4 57 35 144 130 82 90 120 125 137 125 16
0 34 -17 64 -57 77 -106 133 -156 204 -180 36 -12 811 0 970 16 127 12 175 31
225 89 l39 47 33 -32 c56 -55 112 -72 246 -79 83 -4 127 -2 142 6 42 22 50 68
66 353 8 150 20 326 27 392 11 109 14 120 32 120 17 0 20 -6 18 -45 -5 -170
-5 -274 5 -760 18 -900 22 -1008 39 -1014 20 -8 30 0 49 36 17 33 20 74 29
453 9 350 20 417 79 456 14 9 66 15 169 19 l148 5 47 50 c26 28 80 90 119 138
48 57 78 85 87 81 8 -3 42 -41 75 -84 69 -89 109 -125 166 -151 58 -27 75 -25
75 10 0 27 -3 29 -50 35 -65 9 -81 26 -134 140 -42 90 -81 136 -115 136 -35 0
-82 -43 -156 -140 -113 -149 -178 -189 -284 -175 -81 11 -121 9 -163 -8 -35
-15 -38 -20 -75 -134 l-38 -118 -6 165 c-3 91 -7 309 -8 485 -2 359 -13 667
-36 997 -19 266 -19 268 -46 268 -15 0 -19 -4 -15 -16z"/>
<path d="M4575 3812 c-24 -13 -64 -17 -187 -20 l-158 -4 0 -37 c0 -20 7 -124
15 -231 13 -166 34 -790 35 -1042 l0 -78 33 0 c17 0 47 -4 66 -10 47 -13 62
-3 141 104 38 52 90 112 115 134 119 104 279 94 384 -24 l43 -49 -6 75 c-11
123 -26 230 -42 313 -12 58 -14 106 -9 190 10 151 0 187 -71 254 -48 46 -54
56 -54 93 0 58 -42 100 -98 100 -24 0 -49 7 -63 19 -21 17 -22 21 -11 58 22
73 12 120 -32 155 -26 22 -62 22 -101 0z"/>
<path d="M438 3605 c-34 -19 -39 -37 -36 -118 2 -36 -1 -69 -5 -74 -5 -4 -44
-10 -88 -14 -137 -10 -169 -58 -150 -229 6 -52 8 -106 5 -120 -4 -14 -24 -43
-45 -65 -21 -22 -43 -53 -48 -68 -12 -31 -15 -328 -4 -503 l6 -112 150 -7 149
-7 52 50 c123 120 247 132 376 36 33 -24 61 -40 64 -36 2 4 7 66 11 137 3 72
15 207 25 300 23 205 38 446 42 654 l3 153 -30 17 c-43 23 -436 29 -477 6z"/>
<path d="M4737 2094 c-37 -40 -79 -73 -115 -91 -51 -25 -67 -27 -163 -27
l-107 0 -6 -101 c-3 -55 -8 -217 -12 -360 -7 -307 -16 -352 -91 -435 l-45 -50
239 -1 c131 -1 297 -4 368 -8 132 -7 182 -1 197 21 4 7 8 31 8 53 0 22 11 85
25 140 29 121 30 129 27 482 l-2 281 -49 17 c-57 19 -133 64 -181 110 l-35 32
-58 -63z"/>
<path d="M1875 1991 c-22 -24 -64 -55 -94 -69 -48 -22 -68 -25 -152 -24 l-98
1 -11 -47 c-6 -26 -15 -191 -20 -367 -6 -176 -15 -342 -20 -369 -6 -27 -9 -50
-7 -52 2 -2 271 -3 598 -2 911 3 921 3 1137 -10 112 -7 330 -12 485 -12 257 0
280 1 259 15 -12 9 -34 36 -48 61 -30 51 -27 8 -39 522 -8 308 -8 312 -29 313
-12 0 -53 3 -92 7 l-71 8 -23 -71 c-91 -289 -332 -515 -629 -592 -129 -33
-297 -35 -424 -4 -323 77 -572 323 -659 651 l-23 85 -40 -44z"/>
<path d="M590 1909 c-77 -40 -136 -49 -342 -49 l-179 0 3 -302 c3 -291 4 -305
25 -344 27 -51 90 -106 140 -124 28 -10 139 -14 423 -17 l385 -5 -3 49 c-1 26
-6 205 -11 397 -7 246 -13 351 -21 356 -7 4 -62 10 -123 12 -78 4 -127 12
-162 26 -27 10 -57 22 -65 25 -8 3 -40 -8 -70 -24z"/>
</g>
</svg>
