<?xml version="1.0" encoding="utf-8"?>
<!-- Generator: Adobe Illustrator 16.0.0, SVG Export Plug-In . SVG Version: 6.00 Build 0)  -->
<!DOCTYPE svg PUBLIC "-//W3C//DTD SVG 1.1//EN" "http://www.w3.org/Graphics/SVG/1.1/DTD/svg11.dtd">
<svg version="1.1" id="Layer_1" xmlns="http://www.w3.org/2000/svg" xmlns:xlink="http://www.w3.org/1999/xlink" x="0px" y="0px"
	 width="90.7px" height="19.1px" viewBox="0 0 90.7 19.1" enable-background="new 0 0 90.7 19.1" xml:space="preserve">
<g>
	<g>
		<path fill="#FFFFFF" d="M25,12.1v7h-4.4V0.1h6.2c1.4,0,2.5,0.1,3.5,0.4c1,0.3,1.8,0.7,2.4,1.2c0.6,0.5,1.1,1.1,1.3,1.8
			c0.3,0.7,0.4,1.4,0.4,2.2c0,0.6-0.1,1.2-0.2,1.7C34,8,33.8,8.5,33.4,9c-0.3,0.5-0.7,0.9-1.2,1.2c-0.5,0.4-1,0.7-1.6,0.9
			c0.3,0.1,0.6,0.3,0.8,0.5c0.3,0.2,0.5,0.5,0.7,0.8l4,6.6h-4c-0.7,0-1.3-0.3-1.6-0.8l-3.1-5.5c-0.1-0.2-0.3-0.4-0.5-0.5
			c-0.2-0.1-0.4-0.2-0.8-0.2H25z M25,9h1.8c0.6,0,1.1-0.1,1.5-0.2c0.4-0.2,0.8-0.4,1-0.6c0.3-0.3,0.5-0.6,0.6-0.9
			c0.1-0.4,0.2-0.7,0.2-1.2c0-0.8-0.3-1.5-0.8-2s-1.4-0.7-2.5-0.7H25V9z"/>
		<path fill="#FFFFFF" d="M37.9,19.1V0.1h7c1.3,0,2.4,0.1,3.3,0.4c0.9,0.2,1.7,0.6,2.2,1c0.6,0.4,1,1,1.3,1.6
			c0.3,0.6,0.4,1.3,0.4,2.1c0,0.4-0.1,0.8-0.2,1.2c-0.1,0.4-0.3,0.8-0.6,1.1c-0.3,0.3-0.6,0.7-1,0.9c-0.4,0.3-0.9,0.5-1.5,0.7
			c1.2,0.3,2.2,0.8,2.8,1.5c0.6,0.7,0.9,1.6,0.9,2.6c0,0.8-0.2,1.6-0.5,2.2c-0.3,0.7-0.8,1.3-1.4,1.8c-0.6,0.5-1.3,0.9-2.2,1.2
			s-1.9,0.4-3,0.4H37.9z M42.3,8.1h2.3c0.5,0,0.9,0,1.3-0.1c0.4-0.1,0.7-0.2,1-0.4c0.3-0.2,0.5-0.4,0.6-0.7c0.1-0.3,0.2-0.7,0.2-1.1
			c0-0.5-0.1-0.8-0.2-1.1s-0.3-0.5-0.5-0.7c-0.2-0.2-0.5-0.3-0.9-0.4s-0.8-0.1-1.3-0.1h-2.6V8.1z M42.3,11v4.7h3.1
			c0.6,0,1.1-0.1,1.4-0.2s0.7-0.3,0.9-0.6c0.2-0.2,0.4-0.5,0.4-0.8c0.1-0.3,0.1-0.6,0.1-0.9c0-0.3,0-0.7-0.1-0.9
			c-0.1-0.3-0.2-0.5-0.5-0.7c-0.2-0.2-0.5-0.3-0.9-0.4c-0.4-0.1-0.8-0.2-1.4-0.2H42.3z"/>
		<path fill="#FFFFFF" d="M72.6,19.1h-3.4c-0.4,0-0.7-0.1-0.9-0.3s-0.4-0.4-0.5-0.7l-1.1-3.3h-7.2l-1.1,3.3
			c-0.1,0.2-0.3,0.5-0.5,0.7c-0.3,0.2-0.6,0.3-0.9,0.3h-3.4l7.3-18.9h4.5L72.6,19.1z M60.4,11.8h5.2l-1.7-5.2
			c-0.1-0.3-0.2-0.7-0.4-1.2C63.3,5,63.2,4.5,63,4c-0.1,0.5-0.3,1-0.4,1.5c-0.1,0.5-0.3,0.8-0.4,1.2L60.4,11.8z"/>
		<path fill="#FFFFFF" d="M76.9,0.1c0.1,0,0.2,0,0.4,0.1c0.1,0,0.2,0.1,0.3,0.2s0.2,0.2,0.3,0.4l9,11.4c0-0.4-0.1-0.7-0.1-1.1
			c0-0.3,0-0.7,0-1v-10h3.9v18.9h-2.3c-0.3,0-0.6-0.1-0.9-0.2c-0.2-0.1-0.5-0.3-0.7-0.6L77.9,7.1c0,0.3,0,0.7,0.1,1
			c0,0.3,0,0.6,0,0.9v10.2h-3.9V0.1h2.3C76.7,0.1,76.8,0.1,76.9,0.1z"/>
	</g>
	<g>
		<path fill="#FFFFFF" d="M6,9.1v-6l-3-3l-3,3v2l0,0v14h12v-10H6z M4,17.1H2v-2h2V17.1z M4,13.1H2v-2h2V13.1z M4,9.1H2v-2h2V9.1z
			 M4,5.1H2v-2h2V5.1z M10,17.1H8v-2h2V17.1z M10,13.1H8v-2h2V13.1z"/>
		<path fill="#FFFFFF" d="M6,9v10h12V5l0,0V0l-3,0l-3,0v9H6z M14,15h2v2h-2V15z M14,11h2v2h-2V11z M14,7h2v2h-2V7z M14,3h2v2h-2V3z
			 M8,15h2v2H8V15z M8,11h2v2H8V11z"/>
	</g>
</g>
</svg>
