<svg xmlns="http://www.w3.org/2000/svg" width="90.7" height="19.1"><g fill="#FFF"><path d="M25 12.1v7h-4.4V.1h6.2c1.4 0 2.5.1 3.5.4 1 .3 1.8.7 2.4 1.2.6.5 1.1 1.1 1.3 1.8.3.7.4 1.4.4 2.2 0 .6-.1 1.2-.2 1.7-.2.6-.4 1.1-.8 1.6-.3.5-.7.9-1.2 1.2-.5.4-1 .7-1.6.9.3.1.6.3.8.5.3.2.5.5.7.8l4 6.6h-4c-.7 0-1.3-.3-1.6-.8l-3.1-5.5c-.1-.2-.3-.4-.5-.5-.2-.1-.4-.2-.8-.2H25zM25 9h1.8c.6 0 1.1-.1 1.5-.2.4-.2.8-.4 1-.6.3-.3.5-.6.6-.9.1-.4.2-.7.2-1.2 0-.8-.3-1.5-.8-2s-1.4-.7-2.5-.7H25V9zM37.9 19.1V.1h7c1.3 0 2.4.1 3.3.4.9.2 1.7.6 2.2 1 .6.4 1 1 1.3 1.6.3.6.4 1.3.4 2.1 0 .4-.1.8-.2 1.2-.1.4-.3.8-.6 1.1-.3.3-.6.7-1 .9-.4.3-.9.5-1.5.7 1.2.3 2.2.8 2.8 1.5.6.7.9 1.6.9 2.6 0 .8-.2 1.6-.5 2.2-.3.7-.8 1.3-1.4 1.8-.6.5-1.3.9-2.2 1.2s-1.9.4-3 .4h-7.5zm4.4-11h2.3c.5 0 .9 0 1.3-.1s.7-.2 1-.4c.3-.2.5-.4.6-.7.1-.3.2-.7.2-1.1 0-.5-.1-.8-.2-1.1s-.3-.5-.5-.7c-.2-.2-.5-.3-.9-.4s-.8-.1-1.3-.1h-2.6v4.6zm0 2.9v4.7h3.1c.6 0 1.1-.1 1.4-.2s.7-.3.9-.6c.2-.2.4-.5.4-.8.1-.3.1-.6.1-.9 0-.3 0-.7-.1-.9-.1-.3-.2-.5-.5-.7-.2-.2-.5-.3-.9-.4-.4-.1-.8-.2-1.4-.2h-3zM72.6 19.1h-3.4c-.4 0-.7-.1-.9-.3s-.4-.4-.5-.7l-1.1-3.3h-7.2l-1.1 3.3c-.1.2-.3.5-.5.7-.3.2-.6.3-.9.3h-3.4L60.9.2h4.5l7.2 18.9zm-12.2-7.3h5.2l-1.7-5.2c-.1-.3-.2-.7-.4-1.2-.2-.4-.3-.9-.5-1.4-.1.5-.3 1-.4 1.5-.1.5-.3.8-.4 1.2l-1.8 5.1zM76.9.1c.1 0 .2 0 .4.1.1 0 .2.1.3.2s.2.2.3.4l9 11.4c0-.4-.1-.7-.1-1.1V.1h3.9V19h-2.3c-.3 0-.6-.1-.9-.2-.2-.1-.5-.3-.7-.6L77.9 7.1c0 .3 0 .7.1 1v11.1h-3.9V.1h2.8z"/><g><path d="M6 9.1v-6l-3-3-3 3v16h12v-10H6zm-2 8H2v-2h2v2zm0-4H2v-2h2v2zm0-4H2v-2h2v2zm0-4H2v-2h2v2zm6 12H8v-2h2v2zm0-4H8v-2h2v2z"/><path d="M6 9v10h12V0h-6v9H6zm8 6h2v2h-2v-2zm0-4h2v2h-2v-2zm0-4h2v2h-2V7zm0-4h2v2h-2V3zM8 15h2v2H8v-2zm0-4h2v2H8v-2z"/></g></g></svg>